# xmcd CD database file
#
# Track frame offsets:
#	150
#	12890
#	26500
#	38892
#	52002
#	66315
#	78182
#	90877
#	104397
#	118852
#
# Disc length: 1753 seconds
#
# Revision: 0
# Processed by: cddbd v1.5.1PL0 Copyright (c) Steve Scherf et al.
# Submitted via: CDex 1.51
#
DISCID=7606d70a
DTITLE=Gene Ammons - Makes it Happen
DYEAR=1950
DGENRE=Jazz
TTITLE0=My Foolish Heart
TTITLE1=Prelude To A Kiss
TTITLE2=Goobye
TTITLE3=Can Anyone Explain
TTITLE4=It's You Or No One
TTITLE5=Pennies From Heaven
TTITLE6=Happiness Is A Thing Called Job
TTITLE7=You Go To My Head
TTITLE8=One In A While
TTITLE9=It's The Talk Of The Town
EXTD=YEAR: 1950
EXTT0=
EXTT1=
EXTT2=
EXTT3=
EXTT4=
EXTT5=
EXTT6=
EXTT7=
EXTT8=
EXTT9=
PLAYORDER=
